<svg xmlns="http://www.w3.org/2000/svg" width="20.333" height="23.237" viewBox="0 0 20.333 23.237">
  <g>
    <path d="M13.489,11.038A1.189,1.189,0,1,1,12.3,9.748,1.238,1.238,0,0,1,13.489,11.038ZM8.063,9.748a1.294,1.294,0,0,0,0,2.579,1.238,1.238,0,0,0,1.185-1.29A1.23,1.23,0,0,0,8.063,9.748ZM20.333,2.393V23.237c-2.927-2.587-1.991-1.73-5.391-4.891l.616,2.149H2.382A2.388,2.388,0,0,1,0,18.1V2.393A2.388,2.388,0,0,1,2.382,0H17.951A2.388,2.388,0,0,1,20.333,2.393ZM17.021,13.408a15.559,15.559,0,0,0-1.673-6.774,5.745,5.745,0,0,0-3.265-1.22l-.163.186a7.733,7.733,0,0,1,2.893,1.476,9.872,9.872,0,0,0-8.679-.337c-.43.2-.686.337-.686.337A7.838,7.838,0,0,1,8.5,5.554l-.116-.139a5.745,5.745,0,0,0-3.265,1.22,15.559,15.559,0,0,0-1.673,6.774,4.213,4.213,0,0,0,3.544,1.766s.43-.523.778-.964A3.614,3.614,0,0,1,5.74,12.839c.171.12.453.275.476.29a8.469,8.469,0,0,0,7.25.407A6.649,6.649,0,0,0,14.8,12.85a3.666,3.666,0,0,1-2.1,1.383c.349.442.767.941.767.941A4.247,4.247,0,0,0,17.021,13.408Z" fill="#fff"/>
  </g>
</svg>
