<svg xmlns="http://www.w3.org/2000/svg" width="21.399" height="21.399" viewBox="0 0 21.399 21.399">
  <g>
    <path d="M19.658,6.283a4.471,4.471,0,0,1,4.458,4.458v8.916a4.471,4.471,0,0,1-4.458,4.458H10.741a4.471,4.471,0,0,1-4.458-4.458V10.741a4.471,4.471,0,0,1,4.458-4.458h8.916m0-1.783H10.741A6.26,6.26,0,0,0,4.5,10.741v8.916A6.26,6.26,0,0,0,10.741,25.9h8.916A6.26,6.26,0,0,0,25.9,19.658V10.741A6.26,6.26,0,0,0,19.658,4.5Z" transform="translate(-4.5 -4.5)" fill="#fff"/>
    <path d="M24.812,11.373A1.187,1.187,0,1,1,26,10.187,1.184,1.184,0,0,1,24.812,11.373Z" transform="translate(-8.223 -5.376)" fill="#fff"/>
    <path d="M16,12.832A3.164,3.164,0,1,1,12.832,16,3.167,3.167,0,0,1,16,12.832m0-1.582A4.746,4.746,0,1,0,20.743,16,4.748,4.748,0,0,0,16,11.25Z" transform="translate(-5.297 -5.297)" fill="#fff"/>
  </g>
</svg>
