<svg xmlns="http://www.w3.org/2000/svg" width="23.37" height="18.981" viewBox="0 0 23.37 18.981">
  <g>
    <path d="M20.968,8.111c.015.208.015.415.015.623A13.534,13.534,0,0,1,7.355,22.362,13.535,13.535,0,0,1,0,20.211a9.908,9.908,0,0,0,1.157.059A9.592,9.592,0,0,0,7.1,18.224,4.8,4.8,0,0,1,2.625,14.9a6.04,6.04,0,0,0,.9.074,5.066,5.066,0,0,0,1.26-.163,4.79,4.79,0,0,1-3.841-4.7v-.059a4.824,4.824,0,0,0,2.165.608A4.8,4.8,0,0,1,1.631,4.256a13.615,13.615,0,0,0,9.876,5.012,5.407,5.407,0,0,1-.119-1.1,4.794,4.794,0,0,1,8.289-3.277,9.43,9.43,0,0,0,3.04-1.157,4.777,4.777,0,0,1-2.106,2.64,9.6,9.6,0,0,0,2.758-.741,10.3,10.3,0,0,1-2.4,2.476Z" transform="translate(0 -3.381)" fill="#fff"/>
  </g>
</svg>
